<svg id="Layer_1" data-name="Layer 1" xmlns="http://www.w3.org/2000/svg" viewBox="0 0 848.64 548.03"><path d="M291.6,198.74A55.28,55.28,0,0,1,294,182a39.78,39.78,0,0,1,6.64-12.84,29.47,29.47,0,0,1,10.07-8.22A28.37,28.37,0,0,1,323.5,158a35.48,35.48,0,0,1,7.94.82,27.2,27.2,0,0,1,6.37,2.23,26.82,26.82,0,0,1,4.9,3.16,23.14,23.14,0,0,1,3.65,3.7l-12.63,18a21.17,21.17,0,0,0-3.16-3.32,7.37,7.37,0,0,0-4.9-1.47,6.78,6.78,0,0,0-4.08,1.31,11.05,11.05,0,0,0-3.1,3.65,19,19,0,0,0-2,5.6,35.82,35.82,0,0,0-.65,7.08,34.2,34.2,0,0,0,.65,7,19.08,19.08,0,0,0,2,5.49,10.65,10.65,0,0,0,3.16,3.65,7,7,0,0,0,4.13,1.31,7.19,7.19,0,0,0,4.52-1.47,14.4,14.4,0,0,0,3.1-3.21l13.18,17.42a27,27,0,0,1-3.81,4.08,24.26,24.26,0,0,1-5,3.32,29.91,29.91,0,0,1-6.31,2.29,33.63,33.63,0,0,1-8,.87,28,28,0,0,1-12.8-2.94,29.93,29.93,0,0,1-10.07-8.33A40.68,40.68,0,0,1,294,215.34,54.29,54.29,0,0,1,291.6,198.74Z"/><path d="M389.58,207.77H379.13v29.51H355.61V160.2h23.52v26.35h10.45V160.2H413.1v77.08H389.58Z"/><path d="M460.56,226.61H447.28l-2.07,10.67H421.59l18.18-77.08h29.28l18.29,77.08H462.63Zm-10.67-18.29h7.84l-3.59-25h-.44Z"/><path d="M520.45,209.63h-2v27.65H495.83V160.2h28.7a35.11,35.11,0,0,1,11.61,1.74,20.55,20.55,0,0,1,8.13,5,20.83,20.83,0,0,1,4.74,7.89,31.9,31.9,0,0,1,1.59,10.4,26.69,26.69,0,0,1-.88,7.08,27.35,27.35,0,0,1-2.18,5.6,17,17,0,0,1-2.95,4.08,11.8,11.8,0,0,1-3.28,2.4l12.33,32.88h-25Zm-2-29.73v13.5h2a10,10,0,0,0,2.18-.27,5.44,5.44,0,0,0,2.17-1,5.94,5.94,0,0,0,1.64-2.07,7.65,7.65,0,0,0,.65-3.38,8.43,8.43,0,0,0-.6-3.48A5.81,5.81,0,0,0,525,181.1a4.59,4.59,0,0,0-2-1,9.74,9.74,0,0,0-1.91-.22Z"/><path d="M564.64,160.2h23.84v55.3H608.3v21.78H564.64Z"/><path d="M617.44,160.2h41.15V181H640v7.73h16.87V208H640v8.06h20v21.23H617.44Z"/><path d="M691.47,239.24a38,38,0,0,1-14-2.61,36.6,36.6,0,0,1-5.5-2.73,30.48,30.48,0,0,1-4.24-3l11.32-18a23,23,0,0,0,5.5,3.38,14.71,14.71,0,0,0,5.93,1.3,5,5,0,0,0,3.1-.92,3.12,3.12,0,0,0,1.26-2.67,4.27,4.27,0,0,0-1.8-3.48,32.46,32.46,0,0,0-5.61-3.27,52.29,52.29,0,0,1-6.2-3.43,23.47,23.47,0,0,1-5.23-4.63,21.54,21.54,0,0,1-3.65-6.36,24.62,24.62,0,0,1-1.36-8.55,26.41,26.41,0,0,1,2.51-12,24.08,24.08,0,0,1,6.37-8.06,25.09,25.09,0,0,1,8.6-4.52,32.48,32.48,0,0,1,9.31-1.41,33.63,33.63,0,0,1,12.46,2.18,28.61,28.61,0,0,1,9.2,5.66L707.8,183.82a16.7,16.7,0,0,0-4.35-3.1,10.79,10.79,0,0,0-4.79-1.25,5.89,5.89,0,0,0-3.16.87,3.3,3.3,0,0,0-1.42,3,3.37,3.37,0,0,0,1.47,2.83,42.76,42.76,0,0,0,5.72,3.16c1.59.8,3.37,1.79,5.33,3a27.27,27.27,0,0,1,5.56,4.57,24.82,24.82,0,0,1,4.41,6.7,22.15,22.15,0,0,1,1.79,9.25,28.74,28.74,0,0,1-2.28,12A22.57,22.57,0,0,1,710,233a25.17,25.17,0,0,1-8.66,4.68A32.51,32.51,0,0,1,691.47,239.24Z"/><path d="M324.69,349.37a31.8,31.8,0,0,1-13.88-2.94,29.16,29.16,0,0,1-10.39-8.27,38.55,38.55,0,0,1-6.54-12.74,60.8,60.8,0,0,1,.06-33.2,39.07,39.07,0,0,1,6.58-12.85,29.39,29.39,0,0,1,10.13-8.22,28.81,28.81,0,0,1,12.85-2.89,38.81,38.81,0,0,1,8.27.82,35.23,35.23,0,0,1,6.64,2.12,22.93,22.93,0,0,1,5.06,3,27.61,27.61,0,0,1,3.65,3.43l-12.3,17.74a12.57,12.57,0,0,0-3.81-3.1,11.67,11.67,0,0,0-5.45-1.14,8.4,8.4,0,0,0-5,1.47,12.21,12.21,0,0,0-3.49,3.92,18.87,18.87,0,0,0-2.07,5.66,34.49,34.49,0,0,0-.65,6.8,39.49,39.49,0,0,0,.55,6.64,22.26,22.26,0,0,0,1.74,5.83,11.5,11.5,0,0,0,3.15,4.13,7.38,7.38,0,0,0,4.8,1.58,7,7,0,0,0,3.37-.76v-6.64h-6.75V299.18h26.56v44a31.54,31.54,0,0,1-9.69,4.51A47.64,47.64,0,0,1,324.69,349.37Z"/><path d="M357.14,308.76A58.71,58.71,0,0,1,359.37,292a37.59,37.59,0,0,1,6.42-12.79A28.19,28.19,0,0,1,376,271.1a33,33,0,0,1,26.78,0,28.19,28.19,0,0,1,10.18,8.11A37.42,37.42,0,0,1,419.36,292a64.32,64.32,0,0,1,0,33.58,38,38,0,0,1-6.43,12.91,29.18,29.18,0,0,1-10.18,8.27,32,32,0,0,1-26.78,0,29.18,29.18,0,0,1-10.18-8.27,38.2,38.2,0,0,1-6.42-12.91A59.24,59.24,0,0,1,357.14,308.76Zm23.95,0a33.39,33.39,0,0,0,2,12.47q2,4.95,6.26,4.95t6.26-4.95a33.37,33.37,0,0,0,2-12.47,32.49,32.49,0,0,0-2-12.35q-2-4.85-6.26-4.85t-6.26,4.85A32.51,32.51,0,0,0,381.09,308.76Z"/><path d="M432.58,347.52V270.44h24.83a39.81,39.81,0,0,1,16,2.89,27.42,27.42,0,0,1,10.67,8,32.5,32.5,0,0,1,5.94,12.25,62.25,62.25,0,0,1,1.85,15.62,60.48,60.48,0,0,1-1.85,15.4,32.06,32.06,0,0,1-5.94,12.09,27.8,27.8,0,0,1-10.67,7.95,40,40,0,0,1-16,2.88Zm35.49-38.32q0-8.59-2.72-13.34t-7.51-4.73h-1.41v35.71h1.41q4.79,0,7.51-4.74T468.07,309.2Z"/><path d="M502.91,347.52V270.44h24.82a39.82,39.82,0,0,1,16.06,2.89,27.42,27.42,0,0,1,10.67,8,32.33,32.33,0,0,1,5.93,12.25,61.78,61.78,0,0,1,1.86,15.62,60,60,0,0,1-1.86,15.4,31.9,31.9,0,0,1-5.93,12.09,27.8,27.8,0,0,1-10.67,7.95,40,40,0,0,1-16.06,2.88ZM538.4,309.2q0-8.59-2.72-13.34t-7.51-4.73h-1.42v35.71h1.42q4.79,0,7.51-4.74T538.4,309.2Z"/><path d="M573.24,270.44h41.15v20.8H595.78V299h16.87v19.27H595.78v8.05h20v21.23H573.24Z"/><path d="M653.59,319.87h-2v27.65H629V270.44h28.69a35.13,35.13,0,0,1,11.62,1.74,19.87,19.87,0,0,1,12.87,12.91,32.11,32.11,0,0,1,1.58,10.39,26.71,26.71,0,0,1-.87,7.08,27.1,27.1,0,0,1-2.19,5.61,16.87,16.87,0,0,1-2.95,4.08,11.52,11.52,0,0,1-3.27,2.39l12.33,32.88h-25Zm-2-29.72v13.5h2a10,10,0,0,0,2.18-.27,5.57,5.57,0,0,0,2.18-1,5.91,5.91,0,0,0,1.63-2.07,7.46,7.46,0,0,0,.66-3.37,8.49,8.49,0,0,0-.6-3.49,5.71,5.71,0,0,0-1.53-2.07,4.65,4.65,0,0,0-2-1,9.59,9.59,0,0,0-1.9-.21Z"/><path d="M727.83,347.52h-23.3v-57h-13.6v-20h50.51v20H727.83Z"/><path d="M749,328.58l20.36-37.34H751v-20.8H797v18.33L776.5,326.29H797v21.23H749Z"/><path d="M334.71,457.77h-23.3v-57H297.8v-20h50.52v20H334.71Z"/><path d="M383.59,457.77l-.76-18.29H360l-8.06,18.29h-9.58L377,380.69h12.3l3.81,77.08Zm-2-68.37h-.43l-18.4,42.67h20.14Z"/><path d="M451.53,403.44a27.3,27.3,0,0,1-1.79,10.29,22.1,22.1,0,0,1-4.72,7.35,18.57,18.57,0,0,1-6.73,4.35,22,22,0,0,1-7.81,1.42h-9.11v30.92H408.52V380.69h21.29a28.51,28.51,0,0,1,7.6,1.08,18,18,0,0,1,7,3.76,20.44,20.44,0,0,1,5.11,7A26,26,0,0,1,451.53,403.44Zm-12.31.16q0-6.17-2.94-9a10.4,10.4,0,0,0-7.51-2.82h-7.4v24.39h7.4a9.75,9.75,0,0,0,7.51-3.2Q439.22,409.79,439.22,403.6Z"/><path d="M477.65,457.77,491,380.69H513.8a38.57,38.57,0,0,1,14,2.23,23.33,23.33,0,0,1,9.25,6.26,24.33,24.33,0,0,1,5.12,9.63,45.63,45.63,0,0,1,1.58,12.36,78.52,78.52,0,0,1-.66,9.8,54.79,54.79,0,0,1-2.34,10.39,50.32,50.32,0,0,1-4.51,10,32.11,32.11,0,0,1-7.24,8.43,34.33,34.33,0,0,1-10.56,5.83,43,43,0,0,1-14.32,2.18Zm42.68-44.42a32.64,32.64,0,0,0-.33-4.68,13.58,13.58,0,0,0-1.19-4.09,7.33,7.33,0,0,0-2.45-2.88,6.84,6.84,0,0,0-4-1.09h-1.85l-6.42,37.23h2.07a9.48,9.48,0,0,0,6.75-2.56,18.89,18.89,0,0,0,4.35-6.31,33.8,33.8,0,0,0,2.34-8A47,47,0,0,0,520.33,413.35Z"/><path d="M584.13,457.77l-3.16-14H563.66l-3.16,14H543.08l18.73-77.08h21.88l18.62,77.08Zm-11.54-60.32h-.44l-6.53,32.77h13.17Z"/><path d="M645.53,457.77h-9l-16-64.46h-.22l-11.1,64.46h-6.86l13.39-77.08h9.14l15.57,64.45h.33l11.32-64.45h6.86Z"/><path d="M661.1,419.23a55,55,0,0,1,2.39-16.77,39.93,39.93,0,0,1,6.64-12.85,29.71,29.71,0,0,1,10.07-8.22,28.5,28.5,0,0,1,12.8-2.88,35.48,35.48,0,0,1,7.94.82,26.86,26.86,0,0,1,11.27,5.38,23.61,23.61,0,0,1,3.65,3.71l-12.63,18a21.64,21.64,0,0,0-3.16-3.32,7.37,7.37,0,0,0-4.9-1.47,6.72,6.72,0,0,0-4.08,1.31,11,11,0,0,0-3.1,3.64,19,19,0,0,0-2,5.61,35.79,35.79,0,0,0-.66,7.08,34,34,0,0,0,.66,7,19,19,0,0,0,2,5.5,10.83,10.83,0,0,0,3.15,3.65,7,7,0,0,0,4.14,1.3,7.13,7.13,0,0,0,4.52-1.47,14,14,0,0,0,3.1-3.21l13.18,17.42a26.06,26.06,0,0,1-3.81,4.08,24.3,24.3,0,0,1-5,3.33,29.56,29.56,0,0,1-6.31,2.28,33.63,33.63,0,0,1-8,.87A28,28,0,0,1,680.2,457a29.81,29.81,0,0,1-10.07-8.33,40.62,40.62,0,0,1-6.64-12.84A54,54,0,0,1,661.1,419.23Z"/><path d="M764.41,391.57H743.07l-3.81,21.23h20.36l-1.74,10.35H737.63l-4.14,23.51h23.3l-1.85,11.11H719.67l13.39-77.08h33.31Z"/><rect x="45.26" y="453.28" width="273.5" height="4.48"/><rect x="411.85" y="453.28" width="85" height="4.48"/><path d="M330.88,65c-.95-.23-1.5.94-1.94,2s-2.33,5.76-2.89,6.65-1.05,1.6-1.88,1.66a2.47,2.47,0,0,1-2.33-2.66c.22-1.72.56-2.94.78-4.88s.27-7.65.22-9.48-.72-2.27-1.66-2.21-1.39-1.22-2.05-1.72-1.45-.67-1.83,0a26.39,26.39,0,0,0-1.39,6.43c-.22,2.38-.94,4-1.11,5.37s-.22,4-1,4.27S312.48,68.1,312,65.5s-.72-5.54-1.11-7-.66-1.94-1.94-1.61-1.66,2.83-1.22,5.15,1,7.32,1.22,9.48a24.75,24.75,0,0,1-.27,7.26c-.5,2.61-1.78,5.54-2.33,5.93s-.56-.11-2.61-1.49-3.54-2-5.32-1.61-2,1.38-1.72,2,3,2,3.88,2.61,2.17,1.44,2.5,2.27a25,25,0,0,0,1.27,3.27c.72,1.39,1.61,2.88,1.94,3.38a3.23,3.23,0,0,1,.34,1.72,15.24,15.24,0,0,0-.34,1.72,1.76,1.76,0,0,1-1.05,1.55c-.61.39-5,5.38-7.43,7.54s-3.82,4.82-5.15,6.87-4.21,6-6.37,7.7-7.15,7.1-8.87,8.59-2.33,3.22-4.38,4.27-5.16,2.11-6.76,3.27-3.38,1.11-4.82,2.33-3.05,2.71-3.66,3-3.11-1.33-4.49-.83a36.18,36.18,0,0,0-4,2c-1.22.61-1.22,1.05-3.44,1.44s-3.38-.33-4.65.28-2,1.16-3.38.83-2.94-4.93-5.16-5.32-2-.78-5.38-.06a122.94,122.94,0,0,0-11.86,3.66c-1.94.72-3,1.22-3.93,1.44s-2.72-1.38-3.05-1.6-.44-3.83-.17-4.27,3.77-3.38,4.94-4.55,3.43-4.76,3.65-6.37-.11-4.21-3.76-5.65a40.84,40.84,0,0,0-8.71-2.11c-1.55-.28-2.66-4.93-4.32-7.2s-2.88-3.88-8.15-4.44a36.14,36.14,0,0,0-13.3,1.11c-3.38.94-9.81,3.49-10.89,4.93-.81,1.08-1.54,4.08-1.83,5.91s-.45,5.69-.7,7.85-.59,4.53-1.17,5.32-3.57,2.91-4.9,4.08a18.45,18.45,0,0,0-4,4.82,29.19,29.19,0,0,0-1.67,4.82c-.2,1.21-.25,1.66-1.2,2.08s-2.5.25-2.74-.42.54-1.87,1.41-3.28l.87-1.41a10.9,10.9,0,0,0,1.29-3.08c.42-1.75,1-3.48,1.42-5.09.49-1.85.78-2.14.95-3.1s-.13-1.74-1.08-1.7-1.66,2.12-2.62,4.36a45.19,45.19,0,0,1-3.2,6.28c-.67.87-.67,1-1.37.87s-1.21-2.41-.92-4.36.75-5,.83-6.06,0-1.76-.91-1.63-1.62,1.28-2,3.2-1,6.81-1.2,8.19a24.66,24.66,0,0,1-1,5.19c-.5,1.08-.83,1.33-1.83,1s-1.33-2-1.41-3.2.17-3.53,0-4.28-.29-.83-1-.79-1.11,1-1.16,2.37a30.06,30.06,0,0,0,0,5.11,10.74,10.74,0,0,1,.79,4.53,57.14,57.14,0,0,1-1.58,8.32c-.42,1-.83,3.74-1.58,4.32s-2.87,1.45-3.91,2.45-6.36,4.95-7.27,5.9-2.58,4.95-3.24,5.78-3.45,4.62-4.58,5.41a18,18,0,0,0-3.78,5,39.87,39.87,0,0,0-3,8.07,62,62,0,0,0-1.46,8.77,6,6,0,0,0,1.71,4.57,21.66,21.66,0,0,0,8.31,4.12c3.83.74,9.48.41,15.13-1a40.37,40.37,0,0,1,8.28-1.46,13.3,13.3,0,0,0,5-2,10.5,10.5,0,0,1,4.49-1.29c.92.12,1.5.17,1.5,2.33s0,19-.21,21.74-.41,19.41-.33,22.61.29,7.86.33,10.89-.7,11.47-.66,13.55-.09,20.74-.13,22.37a40.82,40.82,0,0,0,.42,5.23,13.2,13.2,0,0,1-.13,3.95c-.29,1.5-1.62,5.36-2,6.86s-.46,2.33.12,2.74,1,.5,2.12-.91a12,12,0,0,1,2.66-2.7c.46-.17.46.7-.08,1.7a27.57,27.57,0,0,0-1.87,4.7,37.56,37.56,0,0,1-1.25,4.2c-.58,1.58-2.87,3.24-3.57,4.32a11.19,11.19,0,0,0-1.42,3,5.52,5.52,0,0,1-2.45,2.91,25.16,25.16,0,0,0-4.61,3.45c-1.13,1.25-.67,1-2.37,1.71a27.38,27.38,0,0,0-5,2.53,89.37,89.37,0,0,0-6.69,7.53c-1.75,2.28-6.9,7.36-8,9.31s-4.74,6.86-5.45,8.27-1.16,3.33-2.58,4.7-3.32,2.91-3.65,4.2-1.25,4.82-2.91,6.69-3.75,3-5,4.28-3.7,3.16-4.45,4.45-1,5-1,5A60.63,60.63,0,0,0,85.7,408c-1.21,1.37-8.94,6.61-12.52,10.26s-6.48,7.32-7.56,12.35-.54,5.69,0,7.19,2.74,4.28,5.32,4.12,7.15,0,11.06-3.08,7.19-6.07,8.81-9.52a28.91,28.91,0,0,1,4.2-6.69c.45-.38,1.62.41,3.49-2.16s1.62-3.7,2.74-4.24,4.2-.83,7.44-3,5.41-5.86,6.36-7.4a59,59,0,0,1,9.23-10c4.37-3.75,12.51-8.32,14-10.35s3.32-4.78,6-6.53,4.87-2.58,7.19-5.86,4.49-6.24,8.4-8.86,4.86-5.44,7.52-8.85,6.9-9.35,10.85-13.34,4.37-2.7,6.78-5.53,13.38-15.67,16.13-19.41,8-9.69,9.18-11a4.31,4.31,0,0,1,3.2-1.74c1.38-.21,2.58.54,3.62,2.45s1.22,1.55,1.11,3.77.66,11.52,1.11,15.07,1.11,6.93.83,9.31a23.84,23.84,0,0,0,.33,7.37,8.85,8.85,0,0,1,.45,4.38c-.17,2.61-.95,2.83-.5,5s.66,5.76.05,7.37-3.05,3.6-3.1,5.93a12.16,12.16,0,0,0,.83,5.37,3.94,3.94,0,0,1,.06,3.05,20.75,20.75,0,0,0-1.5,3.88c-.22,1.33-.89,4.71-1.28,6s-.77,4.44-1,5.82-1.61,6.49-2.22,8.54-1.16,6.09-2.49,9.31-1.89,4.71-2.83,7.2a35.75,35.75,0,0,0-1.77,7.1,6.77,6.77,0,0,0,.55,4.32,6.36,6.36,0,0,1,.66,3.6c0,1.22.84,2.28.72,6a39.62,39.62,0,0,0,1.83,11.8c.89,2.28,2.17,5.33,5.16,6.71s6.54,1.77,8.37,1.05,3.82-1,4.93-4,2.16-5.54,1.27-8.31-4-7-4.65-8a4.25,4.25,0,0,1-.11-3.88c.55-1.49.22-2.1-.06-3.32s2.77-3.05,3.94-6.49,3.05-5.87,4.43-8.64,6.32-11.09,8.43-15.52,4-6.71,4.71-9.42.27-4.33,1.77-6.76,3.05-4.05,2.94-7.26-1.17-4.05.44-6.16,1.78-2.05,1.5-6.43-1.06-8.36-.39-13.3,3.33-23.55,3.71-28.21.83-17.35,1-23.16-.11-7.27,2.27-9.15,3.72-4.66,6.77-6.32a69.16,69.16,0,0,0,9.75-7.15c2.6-2.21,2.44-2.94,1.77-4.43s-7.59-21.56-9.14-26.27-6.6-16.8-7.65-21-6-33.37-6.71-37.52-1.55-9.37-1.16-10.65.83-1.77,4.32-3,9.2-3.05,12.42-6,9.59-5.87,13.52-8.65,13.58-9.25,18.24-15.13,12.3-13.46,15.85-18,6.87-5.6,6.76-8.82-4-9-4.44-9.69a1.69,1.69,0,0,1,.06-2.11c.61-.72,2.05-1.66,2.38-3.27s1.56-3.94,2-5.93,2.05-7,2.66-11.14,2.44-5.71,3.1-7.15.83-3.55,1.78-5.16S331.82,65.17,330.88,65ZM146.26,181c-1.16.45-1.7.37-1.87-.3s2.38-5.45,2.87-5.39c.89.11,1.14,1.57,1.08,3.2A2.82,2.82,0,0,1,146.26,181ZM151,160.27a2.69,2.69,0,0,1,0-3.54c.72-.83,2.89-.89,4.49-.34,3,1.06,2.72,2.33,2.11,3.22a5.5,5.5,0,0,1-3.5,2C152.41,162,152,161.27,151,160.27Zm21.89,6.39c.08,1.1-.82.9-1.44,1.21-1,.46-3.59.3-10.81,1.16-5.68.68-5.27.79-5.6.24s.56-1.57,1.56-2.68,5.87-6,6.93-6.54a12,12,0,0,1,3.43-1.16,3.34,3.34,0,0,1,3.11,1.16,4,4,0,0,1,1.28,2.3,5.68,5.68,0,0,0,.59,1.88A6.12,6.12,0,0,1,172.86,166.66Z"/></svg>