<svg width="1" height="1" viewBox="0 0 1 1" fill="none" xmlns="http://www.w3.org/2000/svg">
<g clip-path="url(#clip0_52_33)">
<rect width="1" height="1" fill="white"/>
<path fill-rule="evenodd" clip-rule="evenodd" d="M0.093125 1C0.0416935 1 0 0.958307 0 0.906875C0 0.871985 0.0191874 0.841576 0.047586 0.825625C0.0191874 0.809674 0 0.779265 0 0.744375C0 0.709118 0.0195929 0.678437 0.0484846 0.662627C0.0196087 0.646975 0 0.616403 0 0.58125C0 0.546192 0.0195032 0.515689 0.0482515 0.5C0.0195032 0.484311 0 0.453808 0 0.41875C0 0.383597 0.0196086 0.353025 0.0484846 0.337373C0.0195929 0.321563 0 0.290882 0 0.255625C0 0.220735 0.0191875 0.190326 0.0475861 0.174375C0.0191875 0.158424 0 0.128015 0 0.093125C0 0.0416934 0.0416935 0 0.093125 0H0.906875C0.958306 0 1 0.0416934 1 0.093125C1 0.128015 0.980813 0.158424 0.952414 0.174375C0.980813 0.190326 1 0.220735 1 0.255625C1 0.290882 0.980407 0.321563 0.951515 0.337373C0.980391 0.353025 1 0.383597 1 0.41875C1 0.453808 0.980497 0.484311 0.951748 0.5C0.980497 0.515689 1 0.546192 1 0.58125C1 0.616403 0.980391 0.646975 0.951515 0.662627C0.980407 0.678437 1 0.709118 1 0.744375C1 0.779265 0.980813 0.809674 0.952414 0.825625C0.980813 0.841576 1 0.871985 1 0.906875C1 0.958307 0.958306 1 0.906875 1H0.093125Z" fill="black"/>
<path fill-rule="evenodd" clip-rule="evenodd" d="M1 0.140527C1 0.161833 0.983129 0.182032 0.952937 0.200126C0.983129 0.218219 1 0.238418 1 0.259724C1 0.28103 0.983129 0.301229 0.952937 0.319322C0.983129 0.337416 1 0.357615 1 0.378921C1 0.400298 0.983017 0.42056 0.952636 0.4387C0.983017 0.45692 1 0.477273 1 0.498745C1 0.520288 0.982905 0.540704 0.952335 0.558971C0.982905 0.577238 1 0.597654 1 0.619197C1 0.64074 0.982905 0.661156 0.952335 0.679423C0.982905 0.697689 1 0.718105 1 0.739649C1 0.761121 0.983017 0.781474 0.952636 0.799694C0.983017 0.817834 1 0.838096 1 0.859473C1 0.937084 0.776142 1 0.5 1C0.223858 1 0 0.937084 0 0.859473C0 0.838096 0.0169831 0.817834 0.0473641 0.799694C0.0169831 0.781474 0 0.761121 0 0.739649C0 0.718105 0.0170954 0.697689 0.0476653 0.679423C0.0170954 0.661156 0 0.64074 0 0.619197C0 0.597654 0.0170954 0.577238 0.0476653 0.558971C0.0170954 0.540704 0 0.520288 0 0.498745C0 0.477273 0.0169832 0.45692 0.0473643 0.4387C0.0169832 0.42056 0 0.400298 0 0.378921C0 0.357615 0.0168708 0.337416 0.0470627 0.319322C0.0168708 0.301229 0 0.28103 0 0.259724C0 0.238418 0.0168709 0.218219 0.047063 0.200126C0.0168709 0.182032 0 0.161833 0 0.140527C0 0.0629161 0.223858 0 0.5 0C0.776142 0 1 0.0629161 1 0.140527Z" fill="#D9D9D9"/>
</g>
<defs>
<clipPath id="clip0_52_33">
<rect width="1" height="1" fill="white"/>
</clipPath>
</defs>
</svg>
